#define pirate_width 17
#define pirate_height 16
static char pirate_bits[] = {
   0x00, 0x00, 0x00, 0x00, 0x00, 0x00, 0x00, 0x00, 0x00, 0x00, 0x00, 0x00,
   0x00, 0xc0, 0x00, 0x00, 0xe0, 0x00, 0x00, 0x70, 0x00, 0x00, 0x38, 0x00,
   0x0c, 0x1c, 0x00, 0x1c, 0x0e, 0x00, 0x38, 0x07, 0x00, 0xf0, 0x03, 0x00,
   0xe0, 0x01, 0x00, 0xc0, 0x00, 0x00, 0x00, 0x00, 0x00, 0x00, 0x00, 0x00};
