#define magnus_rm3_width 327
#define magnus_rm3_height 85
static char magnus_rm3_bits[] = {
 0xff,0xff,0xff,0x07,0x00,0x00,0x00,0xf0,0xff,0xff,0x7f,0x00,0x00,0x00,0x00,
 0x00,0x00,0x00,0x00,0x00,0x00,0x00,0x00,0x00,0x00,0x00,0x00,0x00,0x00,0x00,
 0x00,0x00,0x00,0x00,0x00,0x00,0x00,0x00,0x00,0x00,0x80,0xff,0xff,0xff,0x07,
 0x00,0x00,0x00,0xf0,0xff,0xff,0x7f,0x00,0x00,0x00,0x00,0x00,0x00,0x00,0x00,
 0x00,0x00,0x00,0x00,0x00,0x00,0x00,0x00,0x00,0x00,0x00,0x00,0x00,0x00,0x00,
 0x00,0x00,0x00,0x00,0x00,0x00,0x80,0xc0,0xff,0xff,0x0f,0x00,0x00,0x00,0xf8,
 0xff,0xff,0x03,0x00,0x00,0x00,0x00,0x00,0x00,0x00,0x00,0x00,0x00,0x00,0x00,
 0x00,0x00,0x00,0x00,0x00,0x00,0x00,0x00,0x00,0x00,0x00,0x00,0x00,0x00,0x00,
 0x00,0x00,0x80,0x00,0xff,0xff,0x0f,0x00,0x00,0x00,0xf8,0xff,0xff,0x00,0x00,
 0x00,0x00,0x00,0x00,0x00,0x00,0x00,0x00,0x00,0x00,0x00,0x00,0x00,0x00,0x00,
 0x00,0x00,0x00,0x00,0x00,0x00,0x00,0x00,0x00,0x00,0x00,0x00,0x00,0x80,0x00,
 0xff,0xff,0x1f,0x00,0x00,0x00,0xf8,0xff,0x7f,0x00,0x00,0x00,0x00,0x00,0x00,
 0x00,0x00,0x00,0x00,0x00,0x00,0x00,0x00,0x00,0x00,0x00,0x00,0x00,0x00,0x00,
 0x00,0x00,0x00,0x00,0x00,0x00,0x00,0x00,0x00,0x80,0x00,0xfe,0xff,0x1f,0x00,
 0x00,0x00,0xfc,0xff,0x7f,0x00,0x00,0x00,0x00,0x00,0x00,0x00,0x00,0x00,0x00,
 0x00,0x00,0x00,0x00,0x00,0x00,0x00,0x00,0x00,0x00,0x00,0x00,0x00,0x00,0x00,
 0x00,0x00,0x00,0x00,0x00,0x80,0x00,0xfe,0xff,0x1f,0x00,0x00,0x00,0xfc,0xff,
 0x7f,0x00,0x00,0x00,0x00,0x00,0x00,0x00,0x00,0x00,0x00,0x00,0x00,0x00,0x00,
 0x00,0x00,0x00,0x00,0x00,0x00,0x00,0x00,0x00,0x00,0x00,0x00,0x00,0x00,0x00,
 0x00,0x80,0x00,0xfe,0xff,0x1f,0x00,0x00,0x00,0xfe,0xff,0x7f,0x00,0x00,0x00,
 0x00,0x00,0x00,0x00,0x00,0x00,0x00,0x00,0x00,0x00,0x00,0x00,0x00,0x00,0x00,
 0x00,0x00,0x00,0x00,0x00,0x00,0x00,0x00,0x00,0x00,0x00,0x00,0x80,0x00,0xbe,
 0xff,0x3f,0x00,0x00,0x00,0xbe,0xff,0x7f,0x00,0x00,0x00,0x00,0x00,0x00,0x00,
 0x00,0x00,0x00,0x00,0x00,0x00,0x00,0x00,0x00,0x00,0x00,0x00,0x00,0x00,0x00,
 0x00,0x00,0x00,0x00,0x00,0x00,0x00,0x00,0x80,0x00,0xbe,0xff,0x3f,0x00,0x00,
 0x00,0xbe,0xff,0x7f,0x00,0x00,0x00,0x00,0x00,0x00,0x00,0x00,0x00,0x00,0x00,
 0x00,0x00,0x00,0x00,0x00,0x00,0x00,0x00,0x00,0x00,0x00,0x00,0x00,0x00,0x00,
 0x00,0x00,0x00,0x00,0x80,0x00,0xbe,0xff,0x7f,0x00,0x00,0x00,0x9e,0xff,0x7f,
 0x00,0x00,0x00,0x00,0x00,0x00,0x00,0x00,0x00,0x00,0x00,0x00,0x00,0x00,0x00,
 0x00,0x00,0x00,0x00,0x00,0x00,0x00,0x00,0x00,0x00,0x00,0x00,0x00,0x00,0x00,
 0x80,0x00,0xbe,0xff,0x7f,0x00,0x00,0x00,0x9f,0xff,0x7f,0x00,0x00,0x00,0x00,
 0x00,0x00,0x00,0x00,0x00,0x00,0x00,0x00,0x00,0x00,0x00,0x00,0x00,0x00,0x00,
 0x00,0x00,0x00,0x00,0x00,0x00,0x00,0x00,0x00,0x00,0x00,0x80,0x00,0x3e,0xff,
 0x7f,0x00,0x00,0x00,0x8f,0xff,0x7f,0x00,0x00,0x00,0x00,0x00,0x00,0x00,0x00,
 0x00,0x00,0x00,0x00,0x00,0x00,0x00,0x00,0x00,0x00,0x00,0x00,0x00,0x00,0x00,
 0x00,0x00,0x00,0x00,0x00,0x00,0x00,0x80,0x00,0x3e,0xff,0xff,0x00,0x00,0x00,
 0x8f,0xff,0x7f,0x00,0x00,0x00,0x00,0x00,0x00,0x00,0x00,0x00,0x00,0x00,0x00,
 0x00,0x00,0x00,0x00,0x00,0x00,0x00,0x00,0x00,0x00,0x00,0x00,0x00,0x00,0x00,
 0x00,0x00,0x00,0x80,0x00,0x3e,0xfe,0xff,0x00,0x00,0x80,0x8f,0xff,0x7f,0x00,
 0x00,0x00,0x00,0x00,0x00,0x00,0x00,0x00,0x00,0x00,0x00,0x00,0x00,0x00,0x00,
 0x00,0x00,0x00,0x00,0x00,0x00,0x00,0x00,0x00,0x00,0x00,0x00,0x00,0x00,0x80,
 0x00,0x3e,0xfc,0xff,0x01,0x00,0xc0,0x87,0xff,0x7f,0x00,0x00,0x00,0x00,0x00,
 0x00,0x00,0x00,0x00,0x00,0x00,0x00,0x00,0x00,0x00,0x00,0x00,0x00,0x00,0x00,
 0x00,0x00,0x00,0x00,0x00,0x00,0x00,0x00,0x00,0x00,0x80,0x00,0x3e,0xfc,0xff,
 0x01,0x00,0xc0,0x83,0xff,0x7f,0x00,0x00,0x00,0x00,0x00,0x00,0x00,0x00,0x00,
 0x00,0x00,0x00,0x00,0x00,0x00,0x00,0x00,0x00,0x00,0x00,0x00,0x00,0x00,0x00,
 0x00,0x00,0x00,0x00,0x00,0x00,0x80,0x00,0x3e,0xfc,0xff,0x03,0x00,0xc0,0x83,
 0xff,0x7f,0x00,0x00,0x00,0x00,0x00,0x00,0x00,0x00,0x00,0x00,0x00,0x00,0x00,
 0x00,0x00,0x00,0x00,0x00,0x00,0x00,0x00,0x00,0x00,0x00,0x00,0x00,0x00,0x00,
 0x00,0x00,0x80,0x00,0x3e,0xf8,0xff,0x03,0x00,0xe0,0x83,0xff,0x7f,0x00,0x00,
 0x00,0x00,0x00,0x00,0x00,0x00,0x00,0x00,0x00,0x00,0x00,0x00,0x00,0x00,0x00,
 0x00,0x00,0x00,0x00,0x00,0x00,0x00,0x00,0x00,0x00,0x00,0x00,0x00,0x80,0x00,
 0x3e,0xf8,0xff,0x07,0x00,0xe0,0x81,0xff,0x7f,0x00,0x00,0x00,0x00,0x00,0x00,
 0x00,0x00,0x00,0x00,0x00,0x00,0x00,0x00,0x00,0x00,0x00,0x00,0x00,0x00,0x00,
 0x00,0x00,0x00,0x00,0x00,0x00,0x00,0x00,0x00,0x80,0x00,0x3e,0xf0,0xff,0x07,
 0x00,0xf0,0x81,0xff,0x7f,0x00,0x00,0x00,0xe0,0xff,0x00,0x00,0x00,0x00,0xf0,
 0x3f,0x00,0x00,0x00,0x00,0x00,0x00,0xfe,0x00,0x00,0x00,0x00,0x00,0x00,0x00,
 0x00,0x00,0x00,0xfc,0x03,0x98,0x00,0x3e,0xf0,0xff,0x0f,0x00,0xf0,0x81,0xff,
 0x7f,0x00,0x00,0x00,0xfc,0xff,0x03,0x00,0x00,0x00,0xff,0xff,0xff,0xff,0xc1,
 0xff,0x7f,0xc0,0xff,0x03,0x00,0xf8,0xff,0x1f,0xf0,0xff,0x1f,0x00,0x00,0xff,
 0x1f,0x9c,0x00,0x3e,0xe0,0xff,0x0f,0x00,0xf8,0x81,0xff,0x7f,0x00,0x00,0xe0,
 0xff,0xff,0x1f,0x00,0x00,0xe0,0xff,0xff,0xff,0xff,0x01,0xff,0x7f,0xf0,0xff,
 0x0f,0x00,0xe0,0xff,0x1f,0xc0,0xff,0x1f,0x00,0xe0,0xff,0xff,0x9f,0x00,0x3e,
 0xe0,0xff,0x0f,0x00,0xf8,0x80,0xff,0x7f,0x00,0x00,0xf0,0x07,0xfc,0x7f,0x00,
 0x00,0xf0,0x7f,0xf0,0xff,0xff,0x01,0xfe,0x7f,0xf8,0xff,0x1f,0x00,0x80,0xff,
 0x1f,0x80,0xff,0x1f,0x00,0xf0,0x0f,0xfe,0x9f,0x00,0x3e,0xc0,0xff,0x0f,0x00,
 0xfc,0x80,0xff,0x7f,0x00,0x00,0xf8,0x03,0xf8,0xff,0x00,0x00,0xf8,0x1f,0xf0,
 0xff,0xff,0x01,0xfe,0x7f,0xfe,0xff,0x1f,0x00,0x80,0xff,0x1f,0x80,0xff,0x1f,
 0x00,0xf8,0x07,0xf8,0x9f,0x00,0x3e,0xc0,0xff,0x1f,0x00,0x7c,0x80,0xff,0x7f,
 0x00,0x00,0xfc,0x01,0xf0,0xff,0x00,0x00,0xfc,0x1f,0xe0,0xff,0xff,0x01,0xfc,
 0x7f,0xff,0xff,0x3f,0x00,0x00,0xff,0x1f,0x00,0xff,0x1f,0x00,0xf8,0x03,0xf0,
 0x9f,0x00,0x3e,0xc0,0xff,0x1f,0x00,0x7c,0x80,0xff,0x7f,0x00,0x00,0xfe,0x01,
 0xf0,0xff,0x00,0x00,0xfe,0x1f,0xe0,0xff,0x00,0x00,0xfc,0xff,0x1f,0xff,0x7f,
 0x00,0x00,0xff,0x1f,0x00,0xff,0x1f,0x00,0xf8,0x03,0xc0,0x9f,0x00,0x3e,0xc0,
 0xff,0x3f,0x00,0x7c,0x80,0xff,0x7f,0x00,0x00,0xff,0x01,0xe0,0xff,0x01,0x00,
 0xff,0x0f,0xc0,0xff,0x01,0x00,0xfc,0xff,0x0f,0xfc,0x7f,0x00,0x00,0xff,0x1f,
 0x00,0xff,0x1f,0x00,0xfc,0x03,0x80,0x9f,0x00,0x3e,0x80,0xff,0x3f,0x00,0x3c,
 0x80,0xff,0x7f,0x00,0x80,0xff,0x01,0xe0,0xff,0x01,0x80,0xff,0x0f,0xc0,0xff,
 0x03,0x00,0xfc,0xff,0x07,0xfc,0x7f,0x00,0x00,0xff,0x1f,0x00,0xff,0x1f,0x00,
 0xfc,0x03,0x80,0x9f,0x00,0x3e,0x80,0xff,0x7f,0x00,0x1e,0x80,0xff,0x7f,0x00,
 0xc0,0xff,0x07,0xe0,0xff,0x03,0x80,0xff,0x07,0x80,0xff,0x03,0x00,0xfc,0xff,
 0x01,0xf8,0xff,0x00,0x00,0xff,0x1f,0x00,0xff,0x1f,0x00,0xfe,0x03,0x00,0x9f,
 0x00,0x3e,0x00,0xff,0x7f,0x00,0x1f,0x80,0xff,0x7f,0x00,0xc0,0xff,0x07,0xe0,
 0xff,0x03,0x80,0xff,0x07,0x80,0xff,0x07,0x00,0xfc,0xff,0x00,0xf8,0xff,0x00,
 0x00,0xff,0x1f,0x00,0xff,0x1f,0x00,0xfe,0x07,0x00,0x9f,0x00,0x3e,0x00,0xff,
 0xff,0x00,0x1f,0x80,0xff,0x7f,0x00,0xc0,0xff,0x07,0xe0,0xff,0x03,0x80,0xff,
 0x07,0x80,0xff,0x07,0x00,0xfc,0xff,0x00,0xf8,0xff,0x00,0x00,0xff,0x1f,0x00,
 0xff,0x1f,0x00,0xfe,0x0f,0x00,0x9e,0x00,0x3e,0x00,0xfe,0xff,0x00,0x0f,0x80,
 0xff,0x7f,0x00,0xc0,0xff,0x07,0xe0,0xff,0x03,0xc0,0xff,0x07,0x80,0xff,0x0f,
 0x00,0xfc,0x7f,0x00,0xf8,0xff,0x00,0x00,0xff,0x1f,0x00,0xff,0x1f,0x00,0xfe,
 0x3f,0x00,0x9e,0x00,0x3e,0x00,0xfe,0xff,0x80,0x0f,0x80,0xff,0x7f,0x00,0xc0,
 0xff,0x07,0xe0,0xff,0x03,0xc0,0xff,0x07,0x80,0xff,0x0f,0x00,0xfc,0x7f,0x00,
 0xf8,0xff,0x00,0x00,0xff,0x1f,0x00,0xff,0x1f,0x00,0xfe,0x7f,0x00,0x9c,0x00,
 0x3e,0x00,0xfe,0xff,0x81,0x07,0x80,0xff,0x7f,0x00,0xc0,0xff,0x07,0xe0,0xff,
 0x03,0xc0,0xff,0x07,0x80,0xff,0x0f,0x00,0xfc,0x7f,0x00,0xf8,0xff,0x00,0x00,
 0xff,0x1f,0x00,0xff,0x1f,0x00,0xfe,0xff,0x01,0x9c,0x00,0x3e,0x00,0xfc,0xff,
 0xc1,0x07,0x80,0xff,0x7f,0x00,0x80,0xff,0x07,0xe0,0xff,0x03,0xc0,0xff,0x07,
 0x80,0xff,0x0f,0x00,0xfc,0x7f,0x00,0xf8,0xff,0x00,0x00,0xff,0x1f,0x00,0xff,
 0x1f,0x00,0xfe,0xff,0x01,0x98,0x00,0x3e,0x00,0xf8,0xff,0xc3,0x03,0x80,0xff,
 0x7f,0x00,0x00,0xfe,0x03,0xe0,0xff,0x03,0xc0,0xff,0x07,0x80,0xff,0x0f,0x00,
 0xfc,0x7f,0x00,0xf8,0xff,0x00,0x00,0xff,0x1f,0x00,0xff,0x1f,0x00,0xfc,0xff,
 0x0f,0x80,0x00,0x3e,0x00,0xf8,0xff,0xe7,0x03,0x80,0xff,0x7f,0x00,0x00,0xf8,
 0x00,0xf8,0xff,0x03,0xc0,0xff,0x07,0x80,0xff,0x0f,0x00,0xfc,0x7f,0x00,0xf8,
 0xff,0x00,0x00,0xff,0x1f,0x00,0xff,0x1f,0x00,0xfc,0xff,0x3f,0x80,0x00,0x3e,
 0x00,0xf0,0xff,0xe7,0x03,0x80,0xff,0x7f,0x00,0x00,0x00,0x00,0xfc,0xff,0x03,
 0xc0,0xff,0x07,0x80,0xff,0x0f,0x00,0xfc,0x7f,0x00,0xf8,0xff,0x00,0x00,0xff,
 0x1f,0x00,0xff,0x1f,0x00,0xf8,0xff,0x7f,0x80,0x00,0x3e,0x00,0xf0,0xff,0xf7,
 0x03,0x80,0xff,0x7f,0x00,0x00,0x00,0x00,0xff,0xff,0x03,0x80,0xff,0x07,0x80,
 0xff,0x07,0x00,0xfc,0x7f,0x00,0xf8,0xff,0x00,0x00,0xff,0x1f,0x00,0xff,0x1f,
 0x00,0xf8,0xff,0xff,0x80,0x00,0x3e,0x00,0xf0,0xff,0xf7,0x01,0x80,0xff,0x7f,
 0x00,0x00,0x00,0xc0,0xef,0xff,0x03,0x80,0xff,0x07,0x80,0xff,0x07,0x00,0xfc,
 0x7f,0x00,0xf8,0xff,0x00,0x00,0xff,0x1f,0x00,0xff,0x1f,0x00,0xf8,0xff,0xff,
 0x81,0x00,0x3e,0x00,0xe0,0xff,0xf7,0x01,0x80,0xff,0x7f,0x00,0x00,0x00,0xf0,
 0xe7,0xff,0x03,0x80,0xff,0x07,0x80,0xff,0x07,0x00,0xfc,0x7f,0x00,0xf8,0xff,
 0x00,0x00,0xff,0x1f,0x00,0xff,0x1f,0x00,0xf0,0xff,0xff,0x83,0x00,0x3e,0x00,
 0xe0,0xff,0xff,0x01,0x80,0xff,0x7f,0x00,0x00,0x00,0xf8,0xe3,0xff,0x03,0x80,
 0xff,0x0f,0xc0,0xff,0x03,0x00,0xfc,0x7f,0x00,0xf8,0xff,0x00,0x00,0xff,0x1f,
 0x00,0xff,0x1f,0x00,0xe0,0xff,0xff,0x87,0x00,0x3e,0x00,0xe0,0xff,0xff,0x00,
 0x80,0xff,0x7f,0x00,0x00,0x80,0xff,0xe0,0xff,0x03,0x00,0xff,0x0f,0xc0,0xff,
 0x03,0x00,0xfc,0x7f,0x00,0xf8,0xff,0x00,0x00,0xff,0x1f,0x00,0xff,0x1f,0x00,
 0x00,0xff,0xff,0x9f,0x00,0x3e,0x00,0xc0,0xff,0x7f,0x00,0x80,0xff,0x7f,0x00,
 0x00,0xc0,0x7f,0xe0,0xff,0x03,0x00,0xfe,0x1f,0xe0,0xff,0x01,0x00,0xfc,0x7f,
 0x00,0xf8,0xff,0x00,0x00,0xff,0x1f,0x00,0xff,0x1f,0x00,0x00,0xfe,0xff,0xbf,
 0x00,0x3e,0x00,0xc0,0xff,0x7f,0x00,0x80,0xff,0x7f,0x00,0x00,0xf0,0x3f,0xe0,
 0xff,0x03,0x00,0xfc,0x1f,0xe0,0xff,0x00,0x00,0xfc,0x7f,0x00,0xf8,0xff,0x00,
 0x00,0xff,0x1f,0x00,0xff,0x1f,0x00,0x00,0xfc,0xff,0xbf,0x00,0x3e,0x00,0xc0,
 0xff,0x7f,0x00,0x80,0xff,0x7f,0x00,0x00,0xf0,0x1f,0xe0,0xff,0x03,0x00,0xf8,
 0x1f,0xf0,0x7f,0x00,0x00,0xfc,0x7f,0x00,0xf8,0xff,0x00,0x00,0xff,0x1f,0x00,
 0xff,0x1f,0x00,0x00,0xf8,0xff,0xff,0x00,0x3e,0x00,0x80,0xff,0x3f,0x00,0x80,
 0xff,0x7f,0x00,0x00,0xfc,0x0f,0xe0,0xff,0x03,0x00,0xf0,0x7f,0xf8,0x3f,0x00,
 0x00,0xfc,0x7f,0x00,0xf8,0xff,0x00,0x00,0xff,0x1f,0x00,0xff,0x1f,0x00,0x00,
 0xf0,0xff,0xff,0x00,0x3e,0x00,0x80,0xff,0x3f,0x00,0x80,0xff,0x7f,0x00,0x00,
 0xfe,0x07,0xe0,0xff,0x03,0x00,0xc0,0xff,0xff,0x0f,0x00,0x00,0xfc,0x7f,0x00,
 0xf8,0xff,0x00,0x00,0xff,0x1f,0x00,0xff,0x1f,0x00,0x00,0xc0,0xff,0xff,0x00,
 0x3e,0x00,0x00,0xff,0x1f,0x00,0x80,0xff,0x7f,0x00,0x00,0xff,0x07,0xe0,0xff,
 0x03,0x00,0x80,0xff,0xff,0x07,0x00,0x00,0xfc,0x7f,0x00,0xf8,0xff,0x00,0x00,
 0xff,0x1f,0x00,0xff,0x1f,0x00,0x00,0x00,0xff,0xff,0x00,0x3e,0x00,0x00,0xfe,
 0x1f,0x00,0x80,0xff,0x7f,0x00,0x80,0xff,0x07,0xe0,0xff,0x03,0x00,0x80,0xff,
 0x1f,0x00,0x00,0x00,0xfc,0x7f,0x00,0xf8,0xff,0x00,0x00,0xff,0x1f,0x00,0xff,
 0x1f,0x00,0x06,0x00,0xfc,0xff,0x00,0x3e,0x00,0x00,0xfe,0x0f,0x00,0x80,0xff,
 0x7f,0x00,0xc0,0xff,0x07,0xe0,0xff,0x03,0x00,0xc0,0x03,0x00,0x00,0x00,0x00,
 0xfc,0x7f,0x00,0xf8,0xff,0x00,0x00,0xff,0x1f,0x00,0xff,0x1f,0x00,0x06,0x00,
 0xf8,0xff,0x00,0x3e,0x00,0x00,0xfe,0x0f,0x00,0x80,0xff,0x7f,0x00,0xc0,0xff,
 0x07,0xe0,0xff,0x03,0x00,0xf0,0x00,0x00,0x00,0x00,0x00,0xfc,0x7f,0x00,0xf8,
 0xff,0x00,0x00,0xff,0x1f,0x00,0xff,0x1f,0x00,0x0e,0x00,0xf0,0xff,0x00,0x3e,
 0x00,0x00,0xfc,0x07,0x00,0x80,0xff,0x7f,0x00,0xc0,0xff,0x07,0xe0,0xff,0x03,
 0x00,0xf8,0x00,0x00,0x00,0x00,0x00,0xfc,0x7f,0x00,0xf8,0xff,0x00,0x00,0xff,
 0x1f,0x00,0xff,0x1f,0x00,0x0e,0x00,0xe0,0xff,0x00,0x3e,0x00,0x00,0xfc,0x07,
 0x00,0x80,0xff,0x7f,0x00,0xe0,0xff,0x07,0xe0,0xff,0x03,0x00,0x7c,0x00,0x00,
 0x00,0x00,0x00,0xfc,0x7f,0x00,0xf8,0xff,0x00,0x00,0xff,0x1f,0x00,0xff,0x1f,
 0x00,0x1e,0x00,0xc0,0xff,0x00,0x3e,0x00,0x00,0xf8,0x07,0x00,0x80,0xff,0x7f,
 0x00,0xe0,0xff,0x07,0xf0,0xff,0x03,0x00,0x7e,0x00,0x00,0x00,0x00,0x00,0xfc,
 0x7f,0x00,0xf8,0xff,0x00,0x00,0xff,0x1f,0x80,0xff,0x1f,0x00,0x1e,0x00,0x80,
 0xff,0x00,0x7e,0x00,0x00,0xf8,0x07,0x00,0x80,0xff,0x7f,0x00,0xe0,0xff,0x0f,
 0xf8,0xff,0x03,0x00,0x7f,0x00,0x00,0x00,0x00,0x00,0xfc,0x7f,0x00,0xf8,0xff,
 0x00,0x00,0xfe,0x1f,0x80,0xff,0x1f,0x00,0x3e,0x00,0x80,0xff,0x00,0x7e,0x00,
 0x00,0xf0,0x03,0x00,0x80,0xff,0x7f,0x00,0xe0,0xff,0xff,0xff,0xff,0x43,0x80,
 0xff,0x00,0x00,0x00,0x00,0x00,0xfc,0x7f,0x00,0xf8,0xff,0x00,0x00,0xfe,0x3f,
 0xc0,0xff,0x1f,0x00,0xfe,0x00,0x80,0xbf,0x00,0x7e,0x00,0x00,0xf0,0x03,0x00,
 0x80,0xff,0x7f,0x00,0xe0,0xff,0xff,0xef,0xff,0xe7,0x80,0xff,0x03,0x00,0x00,
 0x00,0x00,0xfc,0x7f,0x00,0xf8,0xff,0x00,0x00,0xfe,0x3f,0xe0,0xff,0x1f,0x00,
 0xfe,0x01,0x80,0x9f,0x00,0x7f,0x00,0x00,0xf0,0x03,0x00,0xc0,0xff,0x7f,0x00,
 0xc0,0xff,0xff,0xe7,0xff,0x7f,0x80,0xff,0xff,0xff,0x1f,0x00,0x00,0xfc,0x7f,
 0x00,0xf8,0xff,0x00,0x00,0xfe,0xff,0x78,0xff,0x1f,0x00,0xfe,0x03,0xc0,0x9f,
 0x00,0x7f,0x00,0x00,0xf0,0x01,0x00,0xc0,0xff,0x7f,0x00,0xc0,0xff,0xff,0xc3,
 0xff,0x3f,0x80,0xff,0xff,0xff,0xff,0x01,0x00,0xfe,0xff,0x00,0xfc,0xff,0x01,
 0x00,0xfc,0xff,0x7f,0xff,0x3f,0x00,0xfe,0x0f,0xe0,0x8f,0x80,0xff,0x01,0x00,
 0xe0,0x01,0x00,0xe0,0xff,0xff,0x00,0x80,0xff,0xff,0xc1,0xff,0x3f,0x80,0xff,
 0xff,0xff,0xff,0x07,0x00,0xfe,0xff,0x00,0xfe,0xff,0x01,0x00,0xfc,0xff,0x3f,
 0xff,0x3f,0x00,0xfe,0x3f,0xf8,0x87,0xe0,0xff,0x07,0x00,0xe0,0x00,0x00,0xf8,
 0xff,0xff,0x03,0x80,0xff,0xff,0x80,0xff,0x1f,0x80,0xff,0xff,0xff,0xff,0x0f,
 0x00,0xff,0xff,0x03,0xff,0xff,0x07,0x00,0xf8,0xff,0x1f,0xff,0xff,0x00,0xfe,
 0xff,0xff,0x83,0xff,0xff,0x3f,0x00,0xe0,0x00,0xc0,0xff,0xff,0xff,0x7f,0x00,
 0xff,0x3f,0x80,0xff,0x0f,0x80,0xff,0xff,0xff,0xff,0x3f,0xc0,0xff,0xff,0xcf,
 0xff,0xff,0x0f,0x00,0xe0,0xff,0x07,0xff,0xff,0x03,0x8e,0xff,0xff,0x80,0x00,
 0x00,0x00,0x00,0x00,0x00,0x00,0x00,0x00,0x00,0x00,0x00,0xf0,0x03,0x00,0xfc,
 0x00,0x80,0xff,0xff,0xff,0xff,0x7f,0x00,0x00,0x00,0x00,0x00,0x00,0x00,0x00,
 0x00,0x7f,0x00,0x00,0x00,0x00,0x06,0xe0,0x0f,0x80,0x00,0x00,0x00,0x00,0x00,
 0x00,0x00,0x00,0x00,0x00,0x00,0x00,0x00,0x00,0x00,0x00,0x00,0x00,0xff,0xff,
 0xff,0xff,0xff,0x00,0x00,0x00,0x00,0x00,0x00,0x00,0x00,0x00,0x00,0x00,0x00,
 0x00,0x00,0x00,0x00,0x00,0x80,0x00,0x00,0x00,0x00,0x00,0x00,0x00,0x00,0x00,
 0x00,0x00,0x00,0x00,0x00,0x00,0x00,0x00,0x00,0xfe,0xff,0xff,0xff,0xff,0x00,
 0x00,0x00,0x00,0x00,0x00,0x00,0x00,0x00,0x00,0x00,0x00,0x00,0x00,0x00,0x00,
 0x00,0x80,0x00,0x00,0x00,0x00,0x00,0x00,0x00,0x00,0x00,0x00,0x00,0x00,0x00,
 0x00,0x00,0x00,0x00,0x00,0xfc,0xff,0xff,0xff,0xff,0x01,0x00,0x00,0x00,0x00,
 0x00,0x00,0x00,0x00,0x00,0x00,0x00,0x00,0x00,0x00,0x00,0x00,0x80,0x00,0x00,
 0x00,0x00,0x00,0x00,0x00,0x00,0x00,0x00,0x00,0x00,0x00,0x00,0x00,0x00,0x00,
 0x00,0xf8,0xff,0xff,0xff,0xff,0x01,0x00,0x00,0x00,0x00,0x00,0x00,0x00,0x00,
 0x00,0x00,0x00,0x00,0x00,0x00,0x00,0x00,0x80,0x00,0x00,0x00,0x00,0x00,0x00,
 0x00,0x00,0x00,0x00,0x00,0x00,0x00,0x00,0x00,0x00,0x00,0x00,0xe0,0xff,0xff,
 0xff,0xff,0x01,0x00,0x00,0x00,0x00,0x00,0x00,0x00,0x00,0x00,0x00,0x00,0x00,
 0x00,0x00,0x00,0x00,0x80,0x00,0x00,0x00,0x00,0x00,0x00,0x00,0x00,0x00,0x00,
 0x00,0x00,0x00,0x00,0x00,0x00,0x00,0x00,0xf8,0xff,0xff,0xff,0xff,0x01,0x00,
 0x00,0x00,0x00,0x00,0x00,0x00,0x00,0x00,0x00,0x00,0x00,0x00,0x00,0x00,0x00,
 0x80,0x00,0x00,0x00,0x00,0x00,0x00,0x00,0x00,0x00,0x00,0x00,0x00,0x00,0x00,
 0x00,0x00,0x00,0x00,0x7f,0x00,0x00,0xc0,0xff,0x01,0x00,0x00,0x00,0x00,0x00,
 0x00,0x00,0x00,0x00,0x00,0x00,0x00,0x00,0x00,0x00,0x00,0x80,0x00,0x00,0x00,
 0x00,0x00,0x00,0x00,0x00,0x00,0x00,0x00,0x00,0x00,0x00,0x00,0x00,0x00,0x80,
 0x3f,0x00,0x00,0x00,0xff,0x01,0x00,0x00,0x00,0x00,0x00,0x00,0x00,0x00,0x00,
 0x00,0x00,0x00,0x00,0x00,0x00,0x00,0x80,0x00,0x00,0x00,0x00,0x00,0x00,0x00,
 0x00,0x00,0x00,0x00,0x00,0x00,0x00,0x00,0x00,0x00,0x80,0x3f,0x00,0x00,0x00,
 0xfe,0x01,0x00,0x00,0x00,0x00,0x00,0x00,0x00,0x00,0x00,0x00,0x00,0x00,0x00,
 0x00,0x00,0x00,0x80,0x00,0x00,0x00,0x00,0x00,0x00,0x00,0x00,0x00,0x00,0x00,
 0x00,0x00,0x00,0x00,0x00,0x00,0xc0,0x3f,0x00,0x00,0x00,0xfe,0x00,0x00,0x00,
 0x00,0x00,0x00,0x00,0x00,0x00,0x00,0x00,0x00,0x00,0x00,0x00,0x00,0x00,0x80,
 0x00,0x00,0x00,0x00,0x00,0x00,0x00,0x00,0x00,0x00,0x00,0x00,0x00,0x00,0x00,
 0x00,0x00,0xc0,0x3f,0x00,0x00,0x00,0xfe,0x00,0x00,0x00,0x00,0x00,0x00,0x00,
 0x00,0x00,0x00,0x00,0x00,0x00,0x00,0x00,0x00,0x00,0x80,0x00,0x00,0x00,0x00,
 0x00,0x00,0x00,0x00,0x00,0x00,0x00,0x00,0x00,0x00,0x00,0x00,0x00,0xc0,0x3f,
 0x00,0x00,0x00,0xfe,0x00,0x00,0x00,0x00,0x00,0x00,0x00,0x00,0x00,0x00,0x00,
 0x00,0x00,0x00,0x00,0x00,0x00,0x80,0x00,0x00,0x00,0x00,0x00,0x00,0x00,0x00,
 0x00,0x00,0x00,0x00,0x00,0x00,0x00,0x00,0x00,0xc0,0x3f,0x00,0x00,0x00,0x7e,
 0x00,0x00,0x00,0x00,0x00,0x00,0x00,0x00,0x00,0x00,0x00,0x00,0x00,0x00,0x00,
 0x00,0x00,0x80,0x00,0x00,0x00,0x00,0x00,0x00,0x00,0x00,0x00,0x00,0x00,0x00,
 0x00,0x00,0x00,0x00,0x00,0x80,0x7f,0x00,0x00,0x80,0x3f,0x00,0x00,0x00,0x00,
 0x00,0x00,0x00,0x00,0x00,0x00,0x00,0x00,0x00,0x00,0x00,0x00,0x00,0x80,0x00,
 0x00,0x00,0x00,0x00,0x00,0x00,0x00,0x00,0x00,0x00,0x00,0x00,0x00,0x00,0x00,
 0x00,0x80,0xff,0x00,0x00,0xc0,0x1f,0x00,0x00,0x00,0x00,0x00,0x00,0x00,0x00,
 0x00,0x00,0x00,0x00,0x00,0x00,0x00,0x00,0x00,0x80,0x00,0x00,0x00,0x00,0x00,
 0x00,0x00,0x00,0x00,0x00,0x00,0x00,0x00,0x00,0x00,0x00,0x00,0x80,0xff,0x03,
 0x00,0xf8,0x0f,0x00,0x00,0x00,0x00,0x00,0x00,0x00,0x00,0x00,0x00,0x00,0x00,
 0x00,0x00,0x00,0x00,0x00,0x80,0x00,0x00,0x00,0x00,0x00,0x00,0x00,0x00,0x00,
 0x00,0x00,0x00,0x00,0x00,0x00,0x00,0x00,0x00,0xff,0x1f,0x00,0xfe,0x03,0x00,
 0x00,0x00,0x00,0x00,0x00,0x00,0x00,0x00,0x00,0x00,0x00,0x00,0x00,0x00,0x00,
 0x00,0x80,0x00,0x00,0x00,0x00,0x00,0x00,0x00,0x00,0x00,0x00,0x00,0x00,0x00,
 0x00,0x00,0x00,0x00,0x00,0xfc,0xff,0xff,0xff,0x03,0x00,0x00,0x00,0x00,0x00,
 0x00,0x00,0x00,0x00,0x00,0x00,0x00,0x00,0x00,0x00,0x00,0x00,0x80,0x00,0x00,
 0x00,0x00,0x00,0x00,0x00,0x00,0x00,0x00,0x00,0x00,0x00,0x00,0x00,0x00,0x00,
 0x00,0xf0,0xff,0xff,0x7f,0x00,0x00,0x00,0x00,0x00,0x00,0x00,0x00,0x00,0x00,
 0x00,0x00,0x00,0x00,0x00,0x00,0x00,0x00,0x80,0x00,0x00,0x00,0x00,0x00,0x00,
 0x00,0x00,0x00,0x00,0x00,0x00,0x00,0x00,0x00,0x00,0x00,0x00,0xc0,0xff,0xff,
 0x0f,0x00,0x00,0x00,0x00,0x00,0x00,0x00,0x00,0x00,0x00,0x00,0x00,0x00,0x00,
 0x00,0x00,0x00,0x00,0x80};
