#define pirate_width 17
#define pirate_height 16
static char pirate_bits[] = {
   0x80, 0x07, 0x00, 0xc0, 0x0f, 0x00, 0xe0, 0x1f, 0x00, 0x30, 0x33, 0x00,
   0x30, 0x33, 0x00, 0xe0, 0x1f, 0x00, 0xc0, 0x0f, 0x00, 0x80, 0x07, 0x00,
   0x82, 0x87, 0x00, 0x8e, 0xc7, 0x00, 0x38, 0x73, 0x00, 0x40, 0x08, 0x00,
   0x80, 0x07, 0x00, 0x60, 0x38, 0x00, 0x3c, 0xe0, 0x00, 0x04, 0x80, 0x00};
